<svg xmlns="http://www.w3.org/2000/svg" viewBox="0 0 1440 320" transform="rotate(180)" xmlns:v="https://vecta.io/nano"><defs><linearGradient id="A" x1="0" x2="0" y1="1" y2="0"><stop stop-color="rgba(61, 169, 252, 1)" offset="0%"/></linearGradient></defs><path fill="url(#A)" d="M0 32l30 26.7C60 85 120 139 180 160s120 11 180-10.7C420 128 480 96 540 106.7c60 10.3 120 64.3 180 90.6C780 224 840 224 900 192s120-96 180-90.7c60 5.7 120 79.7 180 85.4 60 5.3 120-58.7 180-101.4 60-42.3 120-64.3 180-26.6 60 37.3 120 133.3 180 176 60 42.3 120 32.3 180 32 60 .3 120 10.3 180-10.7s120-75 180-117.3C2400 96 2460 64 2520 48s120-16 180 10.7c60 26.3 120 80.3 180 122.6 60 42.7 120 74.7 180 64 60-10.3 120-64.3 180-74.6 60-10.7 120 21.3 180 26.6 60 5.7 120-16.3 180-26.6 60-10.7 120-10.7 180 0 60 10.3 120 32.3 180 32 60 .3 120-21.7 180-10.7s120 53 150 74.7l30 21.3v32h-30-150-180-180-180-180-180-180-180-180-180-180-180-180-180-180-180-180-180-180-180-180-180-180H30 0z"/></svg>