<svg width="97" height="20" xmlns="http://www.w3.org/2000/svg" fill="none">

 <g>
  <title>Layer 1</title>
  <path id="svg_1" fill="black" d="m4.42306,9.28934l0,7.06816c0,0.3549 -0.29266,0.6425 -0.65389,0.6425l-2.61527,0c-0.36124,0 -0.6539,-0.2876 -0.6539,-0.6425l0,-12.85115c0,-0.26618 0.16697,-0.50474 0.41993,-0.59989c0,0 5.68812,-2.14233 7.37802,-2.77877c0.45194,-0.17025 0.95205,-0.17025 1.40399,0c1.68986,0.63644 7.37816,2.77877 7.37816,2.77877c0.3369,0.12691 0.5056,0.49872 0.3765,0.82982c-0.1292,0.33125 -0.5075,0.49703 -0.8444,0.37011c0,0 -5.6883,-2.14233 -7.37821,-2.77877c-0.15064,-0.05675 -0.31729,-0.05675 -0.46794,0l-6.95841,2.6207l0,11.76658l1.30779,0l0,-9.63828c0,-0.35485 0.29266,-0.64261 0.65374,-0.64261l10.46153,0c0.3611,0 0.6539,0.28776 0.6539,0.64261l0,9.63828l1.3077,0l0,-9.63828c0,-0.35469 0.2929,-0.64261 0.6538,-0.64261c0.3608,0 0.6538,0.28792 0.6538,0.64261l0,10.28088c0,0.3549 -0.2927,0.6425 -0.6538,0.6425l-2.6154,0c-0.3611,0 -0.6539,-0.2876 -0.6539,-0.6425l0,-7.06816l-9.15374,0zm9.15374,-1.28506l0,-1.28506l-9.15374,0l0,1.28506l9.15374,0z" clip-rule="evenodd" fill-rule="evenodd"/>
  <path id="svg_2" fill="#3da9fc" d="m48.1,15.745c-0.11,0.13 -0.25,0.2125 -0.42,0.2475c-0.17,0.035 -0.34,0.035 -0.51,0c-0.17,-0.035 -0.31,-0.0825 -0.42,-0.1425c-0.17,-0.1 -0.34,-0.2475 -0.51,-0.4425c-0.17,-0.195 -0.3075,-0.4575 -0.4125,-0.7875c-0.105,-0.33 -0.1575,-0.755 -0.1575,-1.275c0,-0.17 -0.03,-0.3275 -0.09,-0.4725c-0.06,-0.145 -0.145,-0.27 -0.255,-0.375c-0.11,-0.105 -0.25,-0.185 -0.42,-0.24l-0.1331,-0.0361c-0.1388,-0.0309 -0.2944,-0.0464 -0.4669,-0.0464l-2.805,0.001l0,2.909c0,0.26 -0.07,0.4775 -0.21,0.6525c-0.14,0.175 -0.335,0.2625 -0.585,0.2625c-0.28,0 -0.53,-0.0875 -0.75,-0.2625c-0.22,-0.175 -0.33,-0.3925 -0.33,-0.6525l0,-8.67c0,-0.26 0.0875,-0.4775 0.2625,-0.6525c0.175,-0.175 0.3925,-0.2625 0.6525,-0.2625l4.32,0c0.52,0 1.0075,0.1375 1.4625,0.4125c0.455,0.275 0.8225,0.655 1.1025,1.14c0.28,0.485 0.42,1.0425 0.42,1.6725c0,0.38 -0.0775,0.75 -0.2325,1.11c-0.155,0.36 -0.365,0.685 -0.63,0.975l-0.1629,0.1662c-0.1112,0.1056 -0.2276,0.2008 -0.3492,0.2856l-0.0814,0.0532l0.0292,0.0182c0.1452,0.1032 0.2733,0.2163 0.3843,0.3393c0.185,0.205 0.33,0.425 0.435,0.66c0.105,0.235 0.1675,0.4875 0.1875,0.7575c0.04,0.25 0.0675,0.47 0.0825,0.66c0.015,0.19 0.045,0.35 0.09,0.48c0.045,0.13 0.1325,0.23 0.2625,0.3c0.22,0.13 0.3575,0.3175 0.4125,0.5625c0.055,0.245 -0.0025,0.4625 -0.1725,0.6525zm-3.315,-8.52l-3.285,0l0,3.405l3.285,0c0.18,0 0.355,-0.0825 0.525,-0.2475c0.17,-0.165 0.31,-0.39 0.42,-0.675c0.11,-0.285 0.165,-0.5975 0.165,-0.9375c0,-0.44 -0.1175,-0.8075 -0.3525,-1.1025c-0.235,-0.295 -0.4875,-0.4425 -0.7575,-0.4425zm9.645,8.775c0.97,0 1.7875,-0.235 2.4525,-0.705c0.665,-0.47 1.1725,-1.1025 1.5225,-1.8975c0.35,-0.795 0.525,-1.6775 0.525,-2.6475c0,-0.72 -0.0975,-1.3975 -0.2925,-2.0325c-0.195,-0.635 -0.485,-1.195 -0.87,-1.68c-0.385,-0.485 -0.8575,-0.8625 -1.4175,-1.1325c-0.56,-0.27 -1.2,-0.405 -1.92,-0.405l-3.585,0c-0.26,0 -0.4775,0.0875 -0.6525,0.2625c-0.175,0.175 -0.2625,0.3925 -0.2625,0.6525l0,8.67c0,0.26 0.0875,0.4775 0.2625,0.6525c0.175,0.175 0.3925,0.2625 0.6525,0.2625l3.585,0zm-0.15,-8.775l-2.475,0l0,7.05l2.475,0c0.63,0 1.145,-0.1625 1.545,-0.4875c0.4,-0.325 0.6925,-0.755 0.8775,-1.29c0.185,-0.535 0.2775,-1.1175 0.2775,-1.7475c0,-0.47 -0.0525,-0.9175 -0.1575,-1.3425c-0.105,-0.425 -0.2675,-0.8 -0.4875,-1.125c-0.22,-0.325 -0.5,-0.5825 -0.84,-0.7725c-0.34,-0.19 -0.745,-0.285 -1.215,-0.285z" clip-rule="evenodd" fill-rule="evenodd"/>
  <path id="svg_3" fill="black" d="m85.86,15.72c-0.1867,0.1867 -0.4187,0.28 -0.696,0.28c-0.2667,0 -0.4907,-0.0933 -0.672,-0.28c-0.1813,-0.1867 -0.272,-0.4187 -0.272,-0.696l0,-9.888c0,-0.27733 0.0933,-0.50933 0.28,-0.696c0.1867,-0.18667 0.4187,-0.28 0.696,-0.28c0.2773,0 0.504,0.09333 0.68,0.28c0.176,0.18667 0.264,0.41867 0.264,0.696l0,9.888c0,0.2773 -0.0933,0.5093 -0.28,0.696zm-15.536,0.04c-0.624,0.2667 -1.2987,0.4 -2.024,0.4c-0.7467,0 -1.4187,-0.0933 -2.016,-0.28c-0.5973,-0.1867 -1.168,-0.5147 -1.712,-0.984c-0.1387,-0.1173 -0.2453,-0.2507 -0.32,-0.4c-0.0747,-0.1493 -0.112,-0.2987 -0.112,-0.448c0,-0.2453 0.088,-0.4613 0.264,-0.648c0.176,-0.1867 0.3973,-0.28 0.664,-0.28c0.2027,0 0.384,0.064 0.544,0.192c0.4053,0.3307 0.808,0.5813 1.208,0.752c0.4,0.1707 0.8933,0.256 1.48,0.256c0.3947,0 0.7573,-0.0613 1.088,-0.184c0.3307,-0.1227 0.5973,-0.288 0.8,-0.496c0.2027,-0.208 0.304,-0.4453 0.304,-0.712c0,-0.32 -0.096,-0.592 -0.288,-0.816c-0.192,-0.224 -0.4853,-0.4133 -0.88,-0.568c-0.3947,-0.1547 -0.896,-0.2747 -1.504,-0.36c-0.576,-0.0853 -1.0827,-0.216 -1.52,-0.392c-0.4373,-0.176 -0.8027,-0.4 -1.096,-0.672c-0.2933,-0.272 -0.5147,-0.592 -0.664,-0.96c-0.1493,-0.368 -0.224,-0.78133 -0.224,-1.24c0,-0.69333 0.1787,-1.28533 0.536,-1.776c0.3573,-0.49067 0.84,-0.864 1.448,-1.12c0.608,-0.256 1.28,-0.384 2.016,-0.384c0.6933,0 1.336,0.104 1.928,0.312c0.592,0.208 1.0747,0.472 1.448,0.792c0.3093,0.24533 0.464,0.528 0.464,0.848c0,0.23467 -0.0907,0.448 -0.272,0.64c-0.1813,0.192 -0.3947,0.288 -0.64,0.288c-0.16,0 -0.304,-0.048 -0.432,-0.144c-0.1707,-0.14933 -0.4,-0.29067 -0.688,-0.424c-0.288,-0.13333 -0.592,-0.24533 -0.912,-0.336c-0.32,-0.09067 -0.6187,-0.136 -0.896,-0.136c-0.4587,0 -0.8453,0.05867 -1.16,0.176c-0.3147,0.11733 -0.552,0.27733 -0.712,0.48c-0.16,0.20267 -0.24,0.43733 -0.24,0.704c0,0.32 0.0933,0.584 0.28,0.792c0.1867,0.208 0.456,0.37333 0.808,0.496c0.352,0.12267 0.7733,0.232 1.264,0.328c0.64,0.11733 1.2027,0.256 1.688,0.416c0.4853,0.16 0.888,0.3653 1.208,0.616c0.32,0.2507 0.56,0.5653 0.72,0.944c0.16,0.3787 0.24,0.84 0.24,1.384c0,0.6933 -0.192,1.2907 -0.576,1.792c-0.384,0.5013 -0.888,0.8853 -1.512,1.152zm8.352,0.2c-0.3467,0.1333 -0.7227,0.2 -1.128,0.2c-0.736,0 -1.4027,-0.1893 -2,-0.568c-0.5973,-0.3787 -1.0693,-0.9013 -1.416,-1.568c-0.3467,-0.6667 -0.52,-1.432 -0.52,-2.296c0,-0.8747 0.1733,-1.6453 0.52,-2.312c0.3467,-0.66667 0.8133,-1.18933 1.4,-1.568c0.5867,-0.37867 1.2373,-0.568 1.952,-0.568c0.4587,0 0.88,0.06933 1.264,0.208c0.384,0.13867 0.7173,0.31467 1,0.528l0.1619,0.12832c0.0514,0.04288 0.1015,0.08744 0.1501,0.13368l0,-0.022c0,-0.27733 0.0907,-0.50933 0.272,-0.696c0.1813,-0.18667 0.4107,-0.28 0.688,-0.28c0.2773,0 0.5067,0.09067 0.688,0.272c0.1813,0.18133 0.272,0.416 0.272,0.704l0,6.768c0,0.2773 -0.0907,0.5093 -0.272,0.696c-0.1813,0.1867 -0.4107,0.28 -0.688,0.28c-0.2773,0 -0.5067,-0.0933 -0.688,-0.28l-0.0831,-0.0971c-0.1007,-0.1345 -0.1612,-0.2892 -0.1813,-0.464l-0.0066,-0.1189l-0.0778,0.0835c-0.1152,0.1171 -0.2496,0.2333 -0.4032,0.3485c-0.256,0.192 -0.5573,0.3547 -0.904,0.488zm-0.888,-1.56c-0.4587,0 -0.864,-0.1173 -1.216,-0.352c-0.352,-0.2347 -0.6267,-0.5547 -0.824,-0.96c-0.1973,-0.4053 -0.296,-0.8587 -0.296,-1.36c0,-0.512 0.0987,-0.9707 0.296,-1.376c0.1973,-0.40533 0.472,-0.72533 0.824,-0.96c0.352,-0.23467 0.7573,-0.352 1.216,-0.352c0.4693,0 0.88,0.11733 1.232,0.352c0.352,0.23467 0.6267,0.55467 0.824,0.96c0.1973,0.4053 0.296,0.864 0.296,1.376c0,0.5013 -0.0987,0.9547 -0.296,1.36c-0.1973,0.4053 -0.472,0.7253 -0.824,0.96c-0.352,0.2347 -0.7627,0.352 -1.232,0.352zm14.544,1.76c0.5333,0 1.0507,-0.088 1.552,-0.264c0.5013,-0.176 0.8907,-0.3813 1.168,-0.616c0.2987,-0.2347 0.448,-0.496 0.448,-0.784c0,-0.2133 -0.0773,-0.4 -0.232,-0.56c-0.1547,-0.16 -0.3493,-0.24 -0.584,-0.24c-0.1707,0 -0.352,0.048 -0.544,0.144c-0.1173,0.064 -0.248,0.1413 -0.392,0.232c-0.144,0.0907 -0.3333,0.168 -0.568,0.232c-0.2347,0.064 -0.5493,0.096 -0.944,0.096c-0.4267,0 -0.8293,-0.104 -1.208,-0.312c-0.3787,-0.208 -0.688,-0.512 -0.928,-0.912c-0.1371,-0.2286 -0.2351,-0.4859 -0.2939,-0.7719l-0.0041,-0.0201l5.282,0c0.2048,0 0.3891,-0.0512 0.553,-0.1536l0.119,-0.0864c0.192,-0.16 0.2933,-0.368 0.304,-0.624c0,-0.576 -0.1093,-1.12 -0.328,-1.632c-0.2187,-0.512 -0.5147,-0.96267 -0.888,-1.352c-0.3733,-0.38933 -0.8027,-0.696 -1.288,-0.92c-0.4853,-0.224 -1,-0.336 -1.544,-0.336c-0.704,0 -1.3707,0.18133 -2,0.544c-0.6293,0.36267 -1.1387,0.88267 -1.528,1.56c-0.3893,0.6773 -0.584,1.496 -0.584,2.456c0,0.8213 0.1787,1.5573 0.536,2.208c0.3573,0.6507 0.8693,1.1653 1.536,1.544c0.6667,0.3787 1.4533,0.568 2.36,0.568zm-2.513,-5.376l4.193,0l0,-0.112c-0.0213,-0.3093 -0.1307,-0.5867 -0.328,-0.832c-0.1973,-0.24533 -0.4427,-0.44 -0.736,-0.584c-0.2933,-0.144 -0.6053,-0.216 -0.936,-0.216c-0.32,0 -0.6187,0.04267 -0.896,0.128c-0.2773,0.08533 -0.5173,0.22933 -0.72,0.432c-0.2027,0.20267 -0.3627,0.4747 -0.48,0.816l-0.0538,0.1782l-0.0432,0.1898z" clip-rule="evenodd" fill-rule="evenodd"/>
  <path id="svg_4" fill="#3da9fc" d="m24.545,16c0.23,0 0.4325,-0.0875 0.6075,-0.2625c0.175,-0.175 0.2625,-0.3925 0.2625,-0.6525l0,-3.656l3.135,-4.489c0.04,-0.06 0.0722,-0.12111 0.0967,-0.18333l0.0308,-0.09417c0.025,-0.095 0.0375,-0.1875 0.0375,-0.2775c0,-0.27 -0.0925,-0.4925 -0.2775,-0.6675c-0.185,-0.175 -0.3925,-0.2625 -0.6225,-0.2625c-0.29,0 -0.54,0.15 -0.75,0.45l-2.473,3.618l-2.642,-3.648c-0.18,-0.24 -0.3857,-0.37714 -0.6171,-0.41143l-0.1179,-0.00857c-0.22,0 -0.435,0.085 -0.645,0.255c-0.21,0.17 -0.315,0.39 -0.315,0.66c0,0.1 0.02,0.21 0.06,0.33c0.04,0.12 0.11,0.245 0.21,0.375l3.12,4.147l0,3.863c0,0.2167 0.0608,0.4038 0.1823,0.5615l0.0802,0.091c0.175,0.175 0.3875,0.2625 0.6375,0.2625z"/>
  <path id="svg_5" fill="#3da9fc" d="m37.5874,15.835c-0.175,0.16 -0.3675,0.24 -0.5775,0.24c-0.18,0 -0.3425,-0.055 -0.4875,-0.165l-0.1026,-0.09c-0.0966,-0.0975 -0.1749,-0.2175 -0.2349,-0.36l-0.779,-1.815l-4.473,0l-0.778,1.83c-0.07,0.19 -0.1775,0.3375 -0.3225,0.4425c-0.145,0.105 -0.3025,0.1575 -0.4725,0.1575c-0.27,0 -0.47,-0.075 -0.6,-0.225c-0.13,-0.15 -0.195,-0.335 -0.195,-0.555c0,-0.09 0.015,-0.185 0.045,-0.285l3.735,-8.97c0.08,-0.2 0.2025,-0.355 0.3675,-0.465c0.165,-0.11 0.3425,-0.155 0.5325,-0.135c0.18,0 0.3475,0.0525 0.5025,0.1575c0.155,0.105 0.2675,0.2525 0.3375,0.4425l3.69,8.79c0.05,0.13 0.075,0.25 0.075,0.36c0,0.27 -0.0875,0.485 -0.2625,0.645zm-5.9205,-3.915l2.999,0l-1.507,-3.511l-1.492,3.511z" clip-rule="evenodd" fill-rule="evenodd"/>
 </g>
</svg>